<?xml version="1.0" encoding="UTF-8"?>
<svg width="327px" height="26px" viewBox="0 0 327 26" version="1.1" xmlns="http://www.w3.org/2000/svg" xmlns:xlink="http://www.w3.org/1999/xlink">
    <title>编组 22</title>
    <defs>
        <path d="M5.80710219,12.353846 C7.03127633,10.7380341 9.07240974,10.0237264 11.0018017,10.5359277 L11.0018017,10.5359277 L11.0661398,10.5530686 L11.0227712,10.6020427 C10.8855167,10.7636572 10.7420668,10.9144974 10.593851,11.0575018 L10.593851,11.0575018 L10.5786005,11.072194 L10.5581077,11.0682761 C10.2933991,11.0178895 10.0247618,10.9924804 9.75555042,10.9923662 C8.39817,10.9865728 7.11531627,11.6296082 6.28415671,12.7324158 L6.28415671,12.7324158 L6.2584215,12.7676771 L6.23459261,12.8 L6.21409975,12.8 C6.00726493,12.7965718 5.8004301,12.7833488 5.59883763,12.7598412 L5.59883763,12.7598412 L5.53306988,12.7520054 L5.56786007,12.6956852 C5.64315938,12.5776576 5.72322448,12.4620788 5.80614904,12.3528665 L5.80614904,12.3528665 Z M9.78699246,11.5862334 L9.78699246,11.5891279 L9.9812241,11.5891279 L9.88056391,11.6619732 C9.04701937,12.2677224 8.07953111,12.6533917 7.0644415,12.7845626 L7.0644415,12.7845626 L6.94346024,12.8 L7.03183327,12.713647 C7.77189567,11.9867804 8.76001209,11.5824422 9.78699246,11.5862334 L9.78699246,11.5862334 Z M8.41919531,9.38613979 C8.50360486,9.36789175 8.59170812,9.38659887 8.66173412,9.43763846 C8.73176012,9.48867805 8.77717632,9.56728878 8.78676004,9.65404533 L8.78676004,9.65404533 C8.80376946,9.81447407 8.70027236,9.96046396 8.54655964,9.99394744 C7.2975333,10.266106 6.18371429,10.9757395 5.40167774,11.9976067 C5.23968343,12.2083703 5.09289204,12.4306478 4.96244031,12.6627177 L4.96244031,12.6627177 L4.94742778,12.6896552 L4.91740273,12.6827984 C4.73886668,12.642637 4.56242915,12.5946393 4.38809015,12.5388053 L4.38809015,12.5388053 L4.33966265,12.5226428 L4.36339213,12.4780735 C4.52429319,12.1749714 4.70993076,11.8859818 4.91837128,11.6141148 C5.71133379,10.5784265 6.81333195,9.82889449 8.06083181,9.4767477 C8.17996346,9.44279014 8.29941796,9.4125875 8.41919531,9.38613979 Z M7.73519488,8.39847426 C9.18553369,8.014135 10.7192264,8.1071872 12.1137383,8.66412925 L12.1137383,8.66412925 L12.1510554,8.6791298 L12.1371811,8.71687313 C12.0759427,8.88381479 12.0070496,9.04930478 11.9324153,9.20947199 L11.9324153,9.20947199 L11.9161489,9.24479588 L11.880267,9.23027922 C9.2406138,8.17374795 6.22828222,9.00281307 4.4819065,11.2664836 C4.22796176,11.5966636 4.00591286,11.9507171 3.81880978,12.3237807 L3.81880978,12.3237807 L3.80158649,12.3586207 L3.76618306,12.3431363 C3.60495391,12.2729724 3.44516004,12.1950663 3.29015042,12.1113535 L3.29015042,12.1113535 L3.25474699,12.0924818 L3.27292713,12.0561902 C3.47874602,11.6445779 3.72340069,11.2540397 4.00348174,10.890018 C4.94052841,9.66473612 6.25297214,8.78846004 7.73519488,8.39847426 Z M3.04150016,10.4843912 C3.12921822,10.4748016 3.21632798,10.5078084 3.27873086,10.5742804 L3.27873086,10.5742804 C3.37620364,10.6825706 3.3915189,10.8480515 3.31396249,10.972457 C3.15705345,11.2269861 3.01448406,11.4912558 2.88701082,11.7638639 L2.88701082,11.7638639 L2.86707714,11.8068966 L2.82952764,11.7801866 C2.68767399,11.678293 2.54721107,11.5684853 2.41231103,11.4537313 L2.41231103,11.4537313 L2.38681446,11.4319676 L2.40164883,11.4013006 C2.52991521,11.1341147 2.67166797,10.8745477 2.82628263,10.6237434 C2.87475545,10.5451501 2.95378209,10.4939808 3.04150016,10.4843912 Z M4.15697905,7.50344859 L4.17739262,7.51120591 C4.39889279,7.59554864 4.63128248,7.64634737 4.86718119,7.66198878 L4.86718119,7.66198878 L4.99061205,7.67071577 L4.88617056,7.7385923 C4.0834505,8.26106086 3.37607854,8.92033982 2.79354286,9.68761849 C2.48525965,10.0946963 2.21341029,10.5292367 1.98127289,10.9859996 L1.98127289,10.9859996 L1.95611199,11.0344829 L1.9171838,10.9952114 C1.78520773,10.8652764 1.657979,10.7280688 1.53739656,10.5826191 L1.53739656,10.5826191 L1.51888193,10.5608016 L1.53217448,10.5355903 C1.76266246,10.1065221 2.02617837,9.69684163 2.32023301,9.3104189 C2.84032894,8.62744278 3.45284981,8.02344081 4.13941389,7.51653907 L4.13941389,7.51653907 L4.15697905,7.50344859 Z M3.44277446,9.74620912 C5.67402726,7.13793594 9.28785506,6.24952302 12.4478105,7.53243723 L12.4478105,7.53243723 L12.4765301,7.54749691 L12.4707862,7.58101682 C12.462649,7.62813902 12.4540331,7.67283225 12.4444599,7.72141184 C12.4186122,7.84917616 12.387978,7.98034105 12.3535144,8.11004855 L12.3535144,8.11004855 L12.3410693,8.15571336 L12.2979898,8.13725312 C11.4073742,7.76030726 10.4517734,7.56693247 9.48681795,7.56838613 C9.1763866,7.56854275 8.86626161,7.58817395 8.55821698,7.62716743 C6.75096794,7.85119058 5.09073919,8.75040001 3.90133102,10.1494197 C3.8313303,10.2360148 3.7205267,10.277214 3.61197346,10.2570092 C3.50342023,10.2368044 3.41423242,10.1583812 3.37906437,10.0522113 C3.34389632,9.9460414 3.36829281,9.82886407 3.44277446,9.74620912 Z M3.13040093,6.84137967 L3.15658098,6.87337304 C3.27071107,7.00660065 3.39835421,7.12716526 3.53738161,7.23305611 L3.53738161,7.23305611 L3.58022169,7.26553423 L3.53785762,7.29898185 L3.23533574,7.54802167 C2.73841603,7.97597048 2.28634583,8.45570476 1.88661085,8.97960344 C1.61650157,9.33341122 1.37092527,9.70595336 1.15166562,10.094524 L1.15166562,10.094524 L1.11929757,10.1517243 L1.0826455,10.0974325 C0.970785318,9.93164867 0.866065142,9.75907835 0.770864983,9.58456904 L0.770864983,9.58456904 L0.759440964,9.56324013 L0.771816985,9.54239596 C0.967329609,9.21713296 1.18043012,8.90317907 1.41013405,8.60198469 C1.90284914,7.95629946 2.47021081,7.37346614 3.09993688,6.86610182 L3.09993688,6.86610182 L3.13040093,6.84137967 Z M9.39675103,9.27293047 C10.1702417,9.24522942 10.9419837,9.36288863 11.6701011,9.61952373 L11.6701011,9.61952373 L11.7170892,9.63420186 L11.6914153,9.67634229 C11.598408,9.83038374 11.4987804,9.98032162 11.3925325,10.1261559 L11.3925325,10.1261559 L11.3741248,10.1517243 L11.34506,10.1422545 C10.7892387,9.96159508 10.2072648,9.86966477 9.62151865,9.86999891 C9.55466966,9.86999891 9.48895097,9.87110371 9.42436257,9.87331332 C9.25851887,9.87513866 9.12105525,9.74811971 9.11360718,9.58616953 C9.10615911,9.42421935 9.23140868,9.28565708 9.39675103,9.27293047 Z M1.21639352,7.0622126 C1.29723889,7.05962239 1.37553251,7.09224239 1.43288544,7.1524111 L1.43288544,7.1524111 C1.54367076,7.27051418 1.547952,7.45871055 1.44262008,7.58130762 C1.28346652,7.76812457 1.13049368,7.96097314 0.983701556,8.15985332 C0.817285647,8.38481614 0.655505278,8.62689571 0.502068882,8.87142052 L0.502068882,8.87142052 L0.460812571,8.93793126 L0.432072219,8.86408477 C0.351638266,8.65699284 0.281545504,8.4455966 0.222082227,8.23076551 L0.222082227,8.23076551 L0.216983133,8.21120353 L0.22810843,8.19457584 C0.325454784,8.0493281 0.423728245,7.90945991 0.520147491,7.77839461 C0.675283585,7.56777725 0.837063953,7.36368054 1.0054886,7.16610449 C1.05927505,7.10237498 1.13554815,7.06480281 1.21639352,7.0622126 Z M2.60379759,4.30344878 L2.60379759,5.04696669 L2.58638088,5.05962646 C1.66946011,5.71408147 0.854467609,6.50151466 0.165942507,7.39535365 L0.165942507,7.39535365 L0.0836969497,7.50344859 L0.0691830278,7.40606576 C0.0309137118,7.15205719 0.00781125038,6.89596776 0,6.63917597 L0,6.63917597 L0,6.6231078 L0.0101597453,6.61093495 C0.742673976,5.73954014 1.59424607,4.97707314 2.53945254,4.34629723 L2.53945254,4.34629723 L2.60379759,4.30344878 Z M8.29884764,5.91755302 C9.73841258,5.73792309 11.2002825,5.9088802 12.558773,6.41572629 L12.558773,6.41572629 L12.5850217,6.42569926 L12.5850217,6.47746369 C12.5850217,6.65032839 12.5773857,6.82889192 12.5621137,7.00745546 L12.5621137,7.00745546 L12.5573412,7.06206931 L12.5057983,7.04164848 C11.5259832,6.64926577 10.4794308,6.44820749 9.42324649,6.44944441 C8.62476636,6.44900426 7.8302352,6.56092292 7.06324976,6.78187652 L7.06324976,6.78187652 L6.94346024,6.81654444 L7.01934285,6.71823952 C7.16429604,6.53032633 7.28086376,6.32233584 7.36534843,6.10086559 L7.36534843,6.10086559 L7.37298442,6.08044476 L7.39446063,6.07569573 C7.69274794,6.00781426 7.99427152,5.95487511 8.29789315,5.91707812 L8.29789315,5.91707812 Z M2.59409655,5.73793146 L2.61153379,5.79842096 C2.65637733,5.97320723 2.72137615,6.14269475 2.80533631,6.30377024 L2.80533631,6.30377024 L2.82078072,6.33377685 L2.79337934,6.35425754 C2.57450041,6.51810312 2.36226424,6.69068077 2.15667083,6.87199051 C2.02844994,6.98483922 1.82881585,6.97694917 1.71077559,6.85436758 C1.59273533,6.731786 1.60098836,6.54093203 1.72920925,6.42808331 C1.99060184,6.19787393 2.26229071,5.98036575 2.54427585,5.77555878 L2.54427585,5.77555878 L2.59409655,5.73793146 Z M2.34497758,3.08965575 L2.36788631,3.12099241 C2.48005452,3.27433975 2.55837215,3.45064407 2.59746113,3.63779852 L2.59746113,3.63779852 L2.60379759,3.66714555 L2.57893917,3.68306258 C1.65715401,4.26318479 0.81475928,4.96549032 0.0721381586,5.77018334 L0.0721381586,5.77018334 L0,5.84827628 L0,4.94647696 L0.0126729198,4.93404178 C0.710162501,4.2404236 1.48150969,3.62862055 2.31232044,3.11004945 L2.31232044,3.11004945 L2.34497758,3.08965575 Z M11.9939654,5.10997067 C12.0683015,5.07233091 12.1546939,5.06554316 12.2340864,5.09110465 C12.3420665,5.12390746 12.4497252,5.15878035 12.5570626,5.19572332 L12.5570626,5.19572332 L12.5850217,5.20527753 L12.5850217,5.84827628 L12.5295855,5.82869013 C12.3685794,5.77009094 12.2062879,5.71595038 12.0427109,5.66626846 C11.8823887,5.61816175 11.791018,5.45112835 11.837838,5.29174319 C11.8634566,5.2130098 11.9196292,5.14761043 11.9939654,5.10997067 Z M8.0598127,4.71291972 C9.08813409,4.58294543 10.1307474,4.61466042 11.1490652,4.80689091 C11.3007571,4.83639889 11.4050739,4.97502136 11.3902054,5.12733269 C11.3824666,5.21100367 11.3393898,5.28754891 11.2715908,5.33810449 C11.2037919,5.38866008 11.1175764,5.40852412 11.0341913,5.39280131 C10.4631221,5.28475111 9.88299836,5.23047536 9.30158967,5.230701 C8.91121185,5.23093773 8.52122346,5.25510325 8.13386362,5.30305882 C7.94161604,5.32749133 7.74129881,5.35897168 7.53860815,5.39703002 L7.53860815,5.39703002 L7.48591807,5.40689699 L7.49066493,5.35427312 C7.49636115,5.28379473 7.49968395,5.21425604 7.49968395,5.14847621 L7.49968395,5.14847621 L7.49968395,4.79843351 L7.53338661,4.79232538 C7.71186832,4.75990532 7.88940065,4.73406324 8.0598127,4.71291972 Z M7.84041664,3.51201759 C9.42522235,3.30218254 11.0352647,3.45498372 12.5566426,3.95961134 L12.5566426,3.95961134 L12.5850217,3.96906054 L12.5850217,4.63448325 L12.5306684,4.61558484 C11.4653913,4.24230113 10.3480903,4.05228459 9.22329778,4.0531087 C8.78608062,4.05338562 8.34929854,4.08162135 7.91545298,4.13765418 C7.79953146,4.15257398 7.67831892,4.17047773 7.53401829,4.19484672 L7.53401829,4.19484672 L7.48591807,4.20280394 L7.48591807,3.56274488 L7.52103123,3.55727429 C7.63935775,3.53887321 7.74373522,3.52345609 7.83993564,3.51102294 L7.83993564,3.51102294 Z M0.567508874,2.76253467 C0.922284847,2.51893407 1.37291615,2.47019436 1.77019962,2.63245315 L1.77019962,2.63245315 L1.84435663,2.66259695 L1.77689767,2.70635409 C1.17271453,3.09765878 0.601660215,3.53667493 0.068415823,4.02052677 L0.068415823,4.02052677 L0,4.08275914 L0,3.84792917 C9.53094584e-05,3.41281732 0.2127329,3.00613527 0.567508874,2.76253467 Z M7.62447283,2.4165862 C9.15902573,2.21205513 10.7165919,2.3240134 12.2107314,2.74624769 C12.3136853,2.77367715 12.426261,2.80771 12.5542317,2.84783828 L12.5542317,2.84783828 L12.5850217,2.86053711 L12.5850217,3.53103504 L12.5316204,3.51325668 C11.432606,3.14738573 10.2869737,2.9615183 9.13462343,2.9621277 C8.65551,2.96238665 8.17687059,2.99394 7.70144769,3.05660695 L7.70144769,3.05660695 L7.57492026,3.07489326 L7.48591807,3.08810004 L7.48591807,2.63094236 C7.48591807,2.58217887 7.48736135,2.52985972 7.490729,2.47144512 L7.490729,2.47144512 L7.490729,2.43588842 L7.56481731,2.4252214 Z M9.42424533,1.21389003 C10.4236856,1.24052467 11.416591,1.38230306 12.3828929,1.63635957 L12.3828929,1.63635957 L12.402531,1.64157524 L12.4101947,1.66006717 C12.4901256,1.84990806 12.5459538,2.04883287 12.5764001,2.25228316 L12.5764001,2.25228316 L12.5850217,2.317242 L12.5237125,2.29922422 C12.4236061,2.26840434 12.3316423,2.24469673 12.2411154,2.22098913 C11.3162562,1.97675262 10.3657585,1.84022123 9.40891803,1.81416661 C9.30059755,1.81145625 9.20196598,1.75174573 9.15017688,1.65752743 C9.09838778,1.56330913 9.10130914,1.44889705 9.15784053,1.35738912 C9.21437191,1.2658812 9.31592485,1.21117965 9.42424533,1.21389003 Z M8.35039542,1.21424538 C8.44098789,1.20946094 8.52925406,1.24287682 8.59216921,1.30577629 C8.65508435,1.36867577 8.68640934,1.45482126 8.67797286,1.54174123 L8.67797286,1.54174123 C8.66444288,1.68878958 8.53864875,1.80438049 8.38384176,1.81149937 C8.14233947,1.82380413 7.90034533,1.84320779 7.65982675,1.86876382 L7.65982675,1.86876382 L7.59440964,1.87586272 L7.61506767,1.81575871 C7.68270293,1.62018098 7.7752187,1.43340305 7.89050817,1.25967833 L7.89050817,1.25967833 L7.9018209,1.24264098 L7.92247894,1.24264098 C8.06511776,1.23096723 8.20775659,1.22150203 8.35039542,1.21424538 Z M9.97413164,7.63103571e-07 C10.6888843,-0.000573981959 11.3701605,0.323534735 11.8479681,0.891455982 L11.8479681,0.891455982 L11.9340723,0.993104152 L11.8089596,0.962609701 C10.8541332,0.731083454 9.87812827,0.613973414 8.89901856,0.613448236 L8.89901856,0.613448236 C8.76153729,0.612431754 8.62120173,0.614972959 8.48229331,0.619547126 L8.48229331,0.619547126 L8.3538506,0.623613053 L8.45660477,0.542802758 C8.85580362,0.220099643 9.33628711,0.0324662202 9.83617465,0.00406745505 C9.88469745,7.63103571e-07 9.92989026,7.63103571e-07 9.97413164,7.63103571e-07 Z" id="path-1"></path>
    </defs>
    <g id="页面-1" stroke="none" stroke-width="1" fill="none" fill-rule="evenodd">
        <g id="护照圆备份-18" transform="translate(-23.000000, -97.000000)">
            <g id="编组-22" transform="translate(23.000000, 97.000000)">
                <path d="M0,0 L327,0 L327,14 C327,20.627417 321.627417,26 315,26 L12,26 C5.372583,26 8.11624501e-16,20.627417 0,14 L0,0 L0,0 Z" id="矩形备份-11" fill="#FFFFFF" opacity="0.0817522321" transform="translate(163.500000, 13.000000) scale(1, -1) translate(-163.500000, -13.000000) "></path>
                <g id="编组-26备份" transform="translate(85.196000, 6.600000)">
                    <g id="编组-20">
                        <mask id="mask-2" fill="white">
                            <use xlink:href="#path-1"></use>
                        </mask>
                        <use id="Combined-Shape" fill="#FFFFFF" fill-rule="nonzero" xlink:href="#path-1"></use>
                    </g>
                    <path d="M26.5584,9.6 L26.5584,6.7608 L27.6608,6.7608 C28.1669333,6.7608 28.6054667,6.68626667 28.9764,6.5372 C29.3473333,6.38813333 29.6264,6.19573333 29.8136,5.96 C30.1672,5.5024 30.344,5.02746667 30.344,4.5352 C30.344,3.91813333 30.1082667,3.3912 29.6368,2.9544 C29.1653333,2.5176 28.5066667,2.2992 27.6608,2.2992 L27.6608,2.2992 L24.78,2.2992 L24.78,9.6 L26.5584,9.6 Z M27.6608,5.4088 L26.5584,5.4088 L26.5584,3.6512 L27.6608,3.6512 C27.9242667,3.6512 28.1357333,3.7344 28.2952,3.9008 C28.4546667,4.0672 28.5344,4.2804 28.5344,4.5404 C28.5344,4.8004 28.4564,5.01013333 28.3004,5.1696 C28.1444,5.32906667 27.9312,5.4088 27.6608,5.4088 L27.6608,5.4088 Z M43.6616,9.6 L44.0672,8.3728 L46.688,8.3728 L47.0936,9.6 L48.9968,9.6 L46.4696,2.2784 L44.3064,2.2784 L41.7688,9.6 L43.6616,9.6 Z M46.2408,7.0208 L44.5144,7.0208 L45.3776,4.4208 L46.2408,7.0208 Z M63.4948,9.6728 C64.3164,9.6728 64.9785333,9.45266667 65.4812,9.0124 C65.9838667,8.57213333 66.2352,8.04346667 66.2352,7.4264 C66.2352,7.0728 66.1693333,6.76946667 66.0376,6.5164 C65.9058667,6.26333333 65.7342667,6.06746667 65.5228,5.9288 C65.3113333,5.79013333 65.0773333,5.674 64.8208,5.5804 C64.5642667,5.4868 64.306,5.40706667 64.046,5.3412 C63.786,5.27533333 63.5502667,5.206 63.3388,5.1332 C63.1273333,5.0604 62.9557333,4.9564 62.824,4.8212 C62.6922667,4.686 62.6264,4.50746667 62.6264,4.2856 C62.6264,4.06373333 62.6974667,3.89386667 62.8396,3.776 C62.9817333,3.65813333 63.1637333,3.5992 63.3856,3.5992 C63.6074667,3.5992 63.7894667,3.67026667 63.9316,3.8124 C64.0737333,3.95453333 64.1586667,4.15733333 64.1864,4.4208 L64.1864,4.4208 L66.1208,4.4208 C66.1,3.6512 65.8469333,3.08786667 65.3616,2.7308 C64.8762667,2.37373333 64.2401333,2.1952 63.4532,2.1952 C62.6662667,2.1952 62.0197333,2.39973333 61.5136,2.8088 C61.0074667,3.21786667 60.7544,3.76213333 60.7544,4.4416 C60.7544,4.78826667 60.8202667,5.08813333 60.952,5.3412 C61.0837333,5.59426667 61.2553333,5.7884 61.4668,5.9236 C61.6782667,6.0588 61.9122667,6.17493333 62.1688,6.272 C62.4253333,6.36906667 62.6836,6.45053333 62.9436,6.5164 C63.2036,6.58226667 63.4393333,6.65333333 63.6508,6.7296 C63.8622667,6.80586667 64.0338667,6.90986667 64.1656,7.0416 C64.2973333,7.17333333 64.3632,7.3432 64.3632,7.5512 C64.3632,7.7592 64.2904,7.9308 64.1448,8.066 C63.9992,8.2012 63.7981333,8.2688 63.5416,8.2688 C62.9938667,8.2688 62.6957333,7.9776 62.6472,7.3952 L62.6472,7.3952 L60.7544,7.3952 C60.7544,8.1232 61.0057333,8.6848 61.5084,9.08 C62.0110667,9.4752 62.6732,9.6728 63.4948,9.6728 Z M81.2636,9.6728 C82.0852,9.6728 82.7473333,9.45266667 83.25,9.0124 C83.7526667,8.57213333 84.004,8.04346667 84.004,7.4264 C84.004,7.0728 83.9381333,6.76946667 83.8064,6.5164 C83.6746667,6.26333333 83.5030667,6.06746667 83.2916,5.9288 C83.0801333,5.79013333 82.8461333,5.674 82.5896,5.5804 C82.3330667,5.4868 82.0748,5.40706667 81.8148,5.3412 C81.5548,5.27533333 81.3190667,5.206 81.1076,5.1332 C80.8961333,5.0604 80.7245333,4.9564 80.5928,4.8212 C80.4610667,4.686 80.3952,4.50746667 80.3952,4.2856 C80.3952,4.06373333 80.4662667,3.89386667 80.6084,3.776 C80.7505333,3.65813333 80.9325333,3.5992 81.1544,3.5992 C81.3762667,3.5992 81.5582667,3.67026667 81.7004,3.8124 C81.8425333,3.95453333 81.9274667,4.15733333 81.9552,4.4208 L81.9552,4.4208 L83.8896,4.4208 C83.8688,3.6512 83.6157333,3.08786667 83.1304,2.7308 C82.6450667,2.37373333 82.0089333,2.1952 81.222,2.1952 C80.4350667,2.1952 79.7885333,2.39973333 79.2824,2.8088 C78.7762667,3.21786667 78.5232,3.76213333 78.5232,4.4416 C78.5232,4.78826667 78.5890667,5.08813333 78.7208,5.3412 C78.8525333,5.59426667 79.0241333,5.7884 79.2356,5.9236 C79.4470667,6.0588 79.6810667,6.17493333 79.9376,6.272 C80.1941333,6.36906667 80.4524,6.45053333 80.7124,6.5164 C80.9724,6.58226667 81.2081333,6.65333333 81.4196,6.7296 C81.6310667,6.80586667 81.8026667,6.90986667 81.9344,7.0416 C82.0661333,7.17333333 82.132,7.3432 82.132,7.5512 C82.132,7.7592 82.0592,7.9308 81.9136,8.066 C81.768,8.2012 81.5669333,8.2688 81.3104,8.2688 C80.7626667,8.2688 80.4645333,7.9776 80.416,7.3952 L80.416,7.3952 L78.5232,7.3952 C78.5232,8.1232 78.7745333,8.6848 79.2772,9.08 C79.7798667,9.4752 80.442,9.6728 81.2636,9.6728 Z M98.2264,9.6 L98.2264,6.7608 L99.3288,6.7608 C99.8349333,6.7608 100.273467,6.68626667 100.6444,6.5372 C101.015333,6.38813333 101.2944,6.19573333 101.4816,5.96 C101.8352,5.5024 102.012,5.02746667 102.012,4.5352 C102.012,3.91813333 101.776267,3.3912 101.3048,2.9544 C100.833333,2.5176 100.174667,2.2992 99.3288,2.2992 L99.3288,2.2992 L96.448,2.2992 L96.448,9.6 L98.2264,9.6 Z M99.3288,5.4088 L98.2264,5.4088 L98.2264,3.6512 L99.3288,3.6512 C99.5922667,3.6512 99.8037333,3.7344 99.9632,3.9008 C100.122667,4.0672 100.2024,4.2804 100.2024,4.5404 C100.2024,4.8004 100.1244,5.01013333 99.9684,5.1696 C99.8124,5.32906667 99.5992,5.4088 99.3288,5.4088 L99.3288,5.4088 Z M117.4408,9.6728 C118.487733,9.6728 119.371733,9.3192 120.0928,8.612 C120.813867,7.9048 121.1744,7.0104 121.1744,5.9288 C121.1744,4.8472 120.8156,3.95453333 120.098,3.2508 C119.3804,2.54706667 118.4964,2.1952 117.446,2.1952 C116.3956,2.1952 115.508133,2.54706667 114.7836,3.2508 C114.059067,3.95453333 113.6968,4.8472 113.6968,5.9288 C113.6968,7.0104 114.057333,7.9048 114.7784,8.612 C115.5064,9.3192 116.393867,9.6728 117.4408,9.6728 Z M117.4356,8.0296 C116.849733,8.0296 116.381733,7.83893333 116.0316,7.4576 C115.681467,7.07626667 115.5064,6.56666667 115.5064,5.9288 C115.5064,5.29093333 115.681467,4.78133333 116.0316,4.4 C116.381733,4.01866667 116.849733,3.828 117.4356,3.828 C118.021467,3.828 118.489467,4.01866667 118.8396,4.4 C119.189733,4.78133333 119.3648,5.29093333 119.3648,5.9288 C119.3648,6.56666667 119.188,7.07626667 118.8344,7.4576 C118.487733,7.83893333 118.021467,8.0296 117.4356,8.0296 Z M135.1368,9.6 L135.1368,6.7608 L135.3448,6.7608 L136.988,9.6 L139.068,9.6 L137.2792,6.6256 C137.8616,6.4592 138.281067,6.17493333 138.5376,5.7728 C138.794133,5.37066667 138.9224,4.95813333 138.9224,4.5352 C138.9224,3.91813333 138.686667,3.3912 138.2152,2.9544 C137.743733,2.5176 137.085067,2.2992 136.2392,2.2992 L136.2392,2.2992 L133.3584,2.2992 L133.3584,9.6 L135.1368,9.6 Z M136.2392,5.4088 L135.1368,5.4088 L135.1368,3.6512 L136.2392,3.6512 C136.502667,3.6512 136.714133,3.7344 136.8736,3.9008 C137.033067,4.0672 137.1128,4.2804 137.1128,4.5404 C137.1128,4.8004 137.0348,5.01013333 136.8788,5.1696 C136.7228,5.32906667 136.5096,5.4088 136.2392,5.4088 L136.2392,5.4088 Z M154.6112,9.6 L154.6112,3.6512 L156.608,3.6512 L156.608,2.2992 L150.8464,2.2992 L150.8464,3.6512 L152.8328,3.6512 L152.8328,9.6 L154.6112,9.6 Z" id="PASSPORT" fill="#FFFFFF" fill-rule="nonzero"></path>
                </g>
            </g>
        </g>
    </g>
</svg>