<svg xmlns="http://www.w3.org/2000/svg" width="5480" height="720" fill="none" viewBox="0 0 5480 720">
  <path fill="#fff" d="M719.46 340.29c-1.31-24.39-5.05-48.14-10.99-71a353.494 353.494 0 0 0-12.94-40C670.07 163.96 626.07 107.89 570 67.57c-36.75-26.45-78.69-46.13-124-57.23C418.44 3.58 389.64 0 360 0s-58.44 3.58-86 10.34c-45.31 11.1-87.25 30.79-124 57.23C93.93 107.9 49.93 163.96 24.47 229.29c-5.06 12.98-9.4 26.33-12.94 40-5.94 22.86-9.68 46.61-10.99 71C.18 346.82 0 353.39 0 360c0 6.81.19 13.57.57 20.29 1.31 23.68 4.91 46.76 10.59 69 3.49 13.66 7.76 27.01 12.77 40C49.3 555.23 93.52 611.81 150 652.43c36.75 26.44 78.69 46.13 124 57.23 27.56 6.76 56.36 10.34 86 10.34s58.44-3.58 86-10.34c45.31-11.1 87.25-30.78 124-57.23 56.48-40.62 100.7-97.2 126.08-163.14 5.01-12.99 9.27-26.34 12.76-40 5.68-22.24 9.28-45.32 10.59-69 .38-6.72.57-13.48.57-20.29 0-6.61-.18-13.18-.54-19.71z"/>
  <path fill="#000" d="m248.979 342.32 93.34-93.34c7.81-7.81 7.81-20.47 0-28.28-7.81-7.81-20.47-7.81-28.28 0l-93.34 93.34c-7.81 7.81-7.81 20.47 0 28.28 7.81 7.81 20.47 7.81 28.28 0zM469.6 376.26l-93.34 93.34c-7.81 7.81-7.81 20.47 0 28.28 7.81 7.81 20.47 7.81 28.28 0l93.34-93.34c7.81-7.81 7.81-20.47 0-28.28-7.8-7.81-20.47-7.81-28.28 0zm10.61-164.75-268.7 268.7c-7.81 7.81-7.81 20.47 0 28.28 7.81 7.81 20.47 7.81 28.28 0l268.7-268.7c7.81-7.81 7.81-20.47 0-28.28-7.81-7.81-20.47-7.81-28.28 0z"/>
  <path fill="#fff" d="M1145.18 226.391c18.15 8.302 32.25 20.145 42.06 35.528 9.81 15.383 14.72 33.453 14.72 54.452 0 20.756-4.91 38.825-14.72 54.208-9.81 15.506-23.91 27.348-42.06 35.528-18.15 8.181-39.61 12.332-64.39 12.332h-53.71a2.45 2.45 0 0 0-2.45 2.441v73.01a2.458 2.458 0 0 1-2.45 2.442h-59.727A2.455 2.455 0 0 1 960 493.89V216.379a2.454 2.454 0 0 1 2.453-2.441h118.337c24.78 0 46.24 4.151 64.39 12.453zm-23.67 126.119c10.05-8.424 15.2-20.511 15.2-36.139 0-15.872-5.02-28.081-15.2-36.505-10.06-8.424-24.9-12.697-44.27-12.697h-50.16a2.452 2.452 0 0 0-2.45 2.442v93.154c0 1.343 1.1 2.442 2.45 2.442h50.16c19.37 0 34.09-4.151 44.27-12.697zm346.6 55.429c-.85-1.221-.36-2.93.99-3.663 17.04-8.058 30.29-19.29 39.85-33.697 9.93-15.139 14.96-33.33 14.96-54.208 0-20.999-4.9-39.191-14.71-54.452-9.81-15.383-23.92-27.104-42.07-35.528-18.15-8.302-39.61-12.453-64.38-12.453h-118.34a2.45 2.45 0 0 0-2.45 2.441v48.348c0 1.343 1.1 2.442 2.45 2.442h114.78c19.38 0 34.1 4.273 44.28 12.697 10.05 8.425 15.2 20.634 15.2 36.505 0 15.628-5.03 27.715-15.2 36.261-10.06 8.669-24.9 12.942-44.28 12.942h-114.78a2.452 2.452 0 0 0-2.45 2.442v125.875c0 1.343 1.1 2.442 2.45 2.442h59.72c1.35 0 2.45-1.099 2.45-2.442v-73.743c0-1.343 1.11-2.442 2.46-2.442h55.55c.86 0 1.59.367 2.09 1.099l52.36 76.551c.49.61 1.23 1.099 2.08 1.099h63.41c1.96 0 3.18-2.198 1.96-3.785l-58.38-84.731zm562.43 82.717c-15.21-6.837-27.72-16.482-37.65-28.935-.74-.855-.74-2.198 0-3.052l32.62-39.68a2.43 2.43 0 0 1 3.8 0c14.72 19.046 31.39 28.57 50.03 28.57 26.37 0 39.49-15.628 39.49-46.761V268.941c0-1.343-1.1-2.442-2.45-2.442h-93.2a2.452 2.452 0 0 1-2.45-2.442v-47.615c0-1.343 1.1-2.442 2.45-2.442h157.34c1.35 0 2.45 1.099 2.45 2.442v180.693c0 34.674-8.46 60.679-25.51 78.016-17.04 17.337-41.94 26.005-74.93 26.005-18.88.122-36.17-3.418-51.99-10.5zm1000.92-223.487h-84.37c-1.35 0-2.46-1.099-2.46-2.442v-48.348c0-1.343 1.11-2.441 2.46-2.441h238.27a2.45 2.45 0 0 1 2.45 2.441v48.348c0 1.343-1.1 2.442-2.45 2.442h-84.37a2.452 2.452 0 0 0-2.45 2.442V493.89c0 1.343-1.11 2.442-2.46 2.442h-59.72a2.452 2.452 0 0 1-2.45-2.442V269.611c0-1.343-1.1-2.442-2.45-2.442zM1681.3 487.034c-23.3-12.698-41.45-30.034-54.58-52.255-13.12-22.22-19.74-47.127-19.74-74.841 0-27.715 6.62-52.621 19.74-74.841 13.13-22.221 31.4-39.558 54.58-52.255 23.3-12.697 49.42-18.924 78.36-18.924 28.94 0 55.06 6.349 78.12 18.924 23.17 12.697 41.32 30.034 54.57 52.255 13.24 22.22 19.99 47.126 19.99 74.841 0 27.714-6.63 52.621-19.99 74.841-13.25 22.221-31.52 39.557-54.57 52.255-23.18 12.697-49.18 18.924-78.12 18.924-28.94 0-55.06-6.349-78.36-18.924zm123-48.226c13.24-7.691 23.67-18.313 31.27-32.109 7.6-13.797 11.4-29.302 11.4-46.761 0-17.459-3.8-33.087-11.4-46.761-7.6-13.674-18.03-24.418-31.27-32.109-13.25-7.692-28.21-11.477-44.64-11.477s-31.4 3.785-44.64 11.477c-13.24 7.691-23.67 18.313-31.27 32.109-7.6 13.674-11.41 29.302-11.41 46.761 0 17.459 3.81 33.086 11.41 46.761 7.6 13.674 18.03 24.418 31.27 32.109 13.24 7.692 28.21 11.477 44.64 11.477 16.55 0 31.39-3.907 44.64-11.477zm478.67 7.587v47.615c0 1.343 1.1 2.442 2.45 2.442h211.18c1.34 0 2.45-1.099 2.45-2.442v-47.615a2.458 2.458 0 0 0-2.45-2.442h-211.06c-1.47 0-2.57 1.099-2.57 2.442zm216.08-183.133v-46.883a2.457 2.457 0 0 0-2.45-2.441h-211.18a2.45 2.45 0 0 0-2.45 2.441v46.883c0 1.343 1.1 2.442 2.45 2.442h211.18c1.34 0 2.45-1.099 2.45-2.442zm-216.08 67.029v45.54c0 1.343 1.1 2.442 2.45 2.442h211.42c1.35 0 2.45-1.099 2.45-2.442v-45.54a2.45 2.45 0 0 0-2.45-2.441h-211.42a2.45 2.45 0 0 0-2.45 2.441zm390.27 156.865c-22.93-12.453-41.08-29.912-54.2-52.01-13.12-22.221-19.75-47.249-19.75-75.208 0-27.959 6.63-53.109 19.75-75.208 13.12-22.22 31.27-39.557 54.2-52.01 22.93-12.453 48.81-18.802 77.51-18.802 24.15 0 46.11 4.273 65.6 12.942 18.77 8.302 34.71 20.022 47.71 35.284.86.976.73 2.441-.25 3.418l-37.89 35.406c-.98.977-2.58.855-3.56-.122-18.64-20.755-41.45-31.133-68.55-31.133-17.29 0-32.74 3.785-46.23 11.477-13.61 7.692-24.16 18.313-31.64 32.11-7.6 13.674-11.41 29.301-11.41 46.76s3.81 33.087 11.41 46.761 18.15 24.418 31.64 32.11c13.61 7.691 28.94 11.476 46.23 11.476 27.1 0 49.91-10.5 68.55-31.499a2.542 2.542 0 0 1 3.56-.244l37.89 35.406c.98.854 1.11 2.32.25 3.296-13 15.506-29.07 27.471-47.95 35.773-19.62 8.546-41.57 12.941-65.73 12.941-28.45-.122-54.21-6.348-77.14-18.924zm963.17-131.653h54.08c1.35 0 2.46 1.098 2.46 2.441v110.98c0 .733-.37 1.466-.98 1.954-14.97 11.232-32.13 19.779-51.63 25.883-19.99 6.227-39.98 9.279-60.22 9.279-28.94 0-55.06-6.227-78.11-18.802-23.06-12.575-41.21-29.912-54.45-52.01-13.13-22.221-19.75-47.249-19.75-75.208 0-27.959 6.62-53.109 19.75-75.208 13.12-22.22 31.39-39.557 54.81-52.01 23.43-12.453 49.67-18.802 78.98-18.802 24.4 0 46.6 4.151 66.59 12.453 19.13 8.058 35.44 19.535 48.69 34.552.85.976.73 2.442-.13 3.418l-38.01 35.529c-.98.976-2.46.854-3.44-.123-19.62-20.022-43.04-30.156-70.51-30.156-17.78 0-33.6 3.785-47.46 11.355-13.86 7.569-24.53 18.191-32.25 31.865-7.73 13.674-11.53 29.424-11.53 47.249 0 17.459 3.8 33.087 11.53 46.761 7.72 13.674 18.39 24.418 32.13 32.109 13.73 7.692 29.31 11.477 46.84 11.477 18.03 0 34.34-3.785 48.93-11.355.86-.366 1.35-1.22 1.35-2.197v-78.748c-.12-1.588.98-2.686 2.33-2.686zM4169.45 214h59.73c1.34 0 2.45 1.099 2.45 2.442v224.28c0 1.342 1.1 2.441 2.45 2.441h135.02c1.35 0 2.45 1.099 2.45 2.442v48.348c0 1.343-1.1 2.442-2.45 2.442h-199.65a2.452 2.452 0 0 1-2.45-2.442V216.442c0-1.343 1.1-2.442 2.45-2.442zm1201.36 183.013v96.94c0 1.343-1.11 2.442-2.46 2.442h-59.72a2.452 2.452 0 0 1-2.45-2.442v-97.794c0-.489-.12-.855-.37-1.221l-105.46-177.275c-.98-1.587.24-3.663 2.08-3.663h62.91c.86 0 1.72.488 2.09 1.221l71.74 120.747c.98 1.587 3.31 1.587 4.17 0l71.74-120.747c.49-.733 1.22-1.221 2.08-1.221h57.64c1.84 0 3.07 2.076 2.09 3.663l-105.96 178.129c0 .367-.12.855-.12 1.221zM3962.27 214h-60.58c-.98 0-1.84.61-2.21 1.465l-122.26 277.511c-.74 1.587.49 3.419 2.21 3.419h60.82c.98 0 1.84-.611 2.33-1.465l24.16-58.97 20.73-49.569 41.94-102.555a2.426 2.426 0 0 1 4.53 0l41.94 102.555 20.36 49.569 24.04 58.97c.36.976 1.22 1.465 2.33 1.465h62.42c1.71 0 2.94-1.832 2.2-3.419L3964.6 215.465c-.49-.855-1.35-1.465-2.33-1.465zm675 0h-60.58c-.98 0-1.84.61-2.21 1.465l-122.26 277.511c-.74 1.587.49 3.419 2.21 3.419h60.82c.98 0 1.84-.611 2.33-1.465l24.16-58.97 20.72-49.569 41.94-102.555a2.433 2.433 0 0 1 4.54 0l41.94 102.555 20.36 49.569 24.04 58.97c.36.976 1.22 1.465 2.33 1.465h62.42c1.71 0 2.94-1.832 2.2-3.419L4639.6 215.465c-.49-.855-1.35-1.465-2.33-1.465zm311.03 42.854-29.31-41.755c-.49-.611-1.23-1.099-1.97-1.099h-67.32c-1.96 0-3.19 2.198-1.96 3.907l60.7 85.829c.98 1.343 2.94 1.343 3.92.122l36.06-44.074c.37-.855.49-2.076-.12-2.93zm102.14 144.559L5015 446.22c-.61.854-.74 1.953-.12 2.93l31.76 46.272c.49.61 1.22 1.099 2.08 1.099h68.55c1.97 0 3.19-2.198 1.97-3.907l-64.88-90.957c-.98-1.465-2.94-1.465-3.92-.244zm-32.51-51.038 94.55-132.468c1.1-1.587 0-3.907-1.97-3.907h-63.76c-.86 0-1.6.366-2.09 1.099l-62.17 90.469c0 .122-.13.122-.13.122L4943 352.694l-.13.123-100.43 139.671c-1.11 1.587 0 3.907 1.96 3.907h68.06c.86 0 1.6-.367 2.09-1.099l65.36-96.94.12-.122 37.9-47.859z"/>
</svg>
