<svg width="5480" height="720" xmlns="http://www.w3.org/2000/svg" fill="none">
 <title>Drawing</title>
 <defs>
  <filter id="svg_4_blur">
   <feGaussianBlur stdDeviation="0" in="SourceGraphic"/>
  </filter>
 </defs>
 <g>
  <title>Layer 1</title>
  <path id="svg_1" d="m719.46,340.29c-1.31,-24.39 -5.05,-48.14 -10.99,-71a353.494,353.494 0 0 0 -12.94,-40c-25.46,-65.33 -69.46,-121.4 -125.53,-161.72c-36.75,-26.45 -78.69,-46.13 -124,-57.23c-27.56,-6.76 -56.36,-10.34 -86,-10.34s-58.44,3.58 -86,10.34c-45.31,11.1 -87.25,30.79 -124,57.23c-56.07,40.33 -100.07,96.39 -125.53,161.72c-5.06,12.98 -9.4,26.33 -12.94,40c-5.94,22.86 -9.68,46.61 -10.99,71c-0.36,6.53 -0.54,13.1 -0.54,19.71c0,6.81 0.19,13.57 0.57,20.29c1.31,23.68 4.91,46.76 10.59,69c3.49,13.66 7.76,27.01 12.77,40c25.37,65.94 69.59,122.52 126.07,163.14c36.75,26.44 78.69,46.13 124,57.23c27.56,6.76 56.36,10.34 86,10.34s58.44,-3.58 86,-10.34c45.31,-11.1 87.25,-30.78 124,-57.23c56.48,-40.62 100.7,-97.2 126.08,-163.14c5.01,-12.99 9.27,-26.34 12.76,-40c5.68,-22.24 9.28,-45.32 10.59,-69c0.38,-6.72 0.57,-13.48 0.57,-20.29c0,-6.61 -0.18,-13.18 -0.54,-19.71z" fill="#fff"/>
  <path id="svg_2" d="m248.979,342.32l93.34,-93.34c7.81,-7.81 7.81,-20.47 0,-28.28c-7.81,-7.81 -20.47,-7.81 -28.28,0l-93.34,93.34c-7.81,7.81 -7.81,20.47 0,28.28c7.81,7.81 20.47,7.81 28.28,0zm220.621,33.94l-93.34,93.34c-7.81,7.81 -7.81,20.47 0,28.28c7.81,7.81 20.47,7.81 28.28,0l93.34,-93.34c7.81,-7.81 7.81,-20.47 0,-28.28c-7.8,-7.81 -20.47,-7.81 -28.28,0zm10.61,-164.75l-268.7,268.7c-7.81,7.81 -7.81,20.47 0,28.28c7.81,7.81 20.47,7.81 28.28,0l268.7,-268.7c7.81,-7.81 7.81,-20.47 0,-28.28c-7.81,-7.81 -20.47,-7.81 -28.28,0z" fill="#000"/>
  <text font-style="normal" font-weight="bold" filter="url(#svg_4_blur)" transform="matrix(3.07616 0 0 3.46367 -8383.42 -81.0634)" stroke="null" xml:space="preserve" text-anchor="start" font-family="'Josefin Slab'" font-size="120" stroke-width="0" id="svg_4" y="165.46453" x="3055.44022" fill="#ffffff">PROJECT  RUNNINGUY</text>
  <path d="m3440,270c4,0 8,0 16,0c4,0 16.60889,4.93854 24,8c5.22632,2.16479 12,8 16,8l4,4" id="svg_5" fill="none"/>
 </g>
</svg>